<svg width="32" height="33" viewBox="0 0 32 33" fill="none" xmlns="http://www.w3.org/2000/svg">
<g id="Group">
<path id="Vector" d="M32 16.9143C32 8.09831 24.816 0.914307 16 0.914307C7.184 0.914307 0 8.09831 0 16.9143C0 21.5543 2 25.7303 5.168 28.6583C5.168 28.6743 5.168 28.6743 5.152 28.6903C5.312 28.8503 5.504 28.9783 5.664 29.1223C5.76 29.2023 5.84 29.2823 5.936 29.3463C6.224 29.5863 6.544 29.8103 6.848 30.0343C6.96 30.1143 7.056 30.1783 7.168 30.2583C7.472 30.4663 7.792 30.6583 8.128 30.8343C8.24 30.8983 8.368 30.9783 8.48 31.0423C8.8 31.2183 9.136 31.3783 9.488 31.5223C9.616 31.5863 9.744 31.6503 9.872 31.6983C10.224 31.8423 10.576 31.9703 10.928 32.0823C11.056 32.1303 11.184 32.1783 11.312 32.2103C11.696 32.3223 12.08 32.4183 12.464 32.5143C12.576 32.5463 12.688 32.5783 12.816 32.5943C13.264 32.6903 13.712 32.7543 14.176 32.8023C14.24 32.8023 14.304 32.8183 14.368 32.8343C14.912 32.8823 15.456 32.9143 16 32.9143C16.544 32.9143 17.088 32.8823 17.616 32.8343C17.68 32.8343 17.744 32.8183 17.808 32.8023C18.272 32.7543 18.72 32.6903 19.168 32.5943C19.28 32.5783 19.392 32.5303 19.52 32.5143C19.904 32.4183 20.304 32.3383 20.672 32.2103C20.8 32.1623 20.928 32.1143 21.056 32.0823C21.408 31.9543 21.776 31.8423 22.112 31.6983C22.24 31.6503 22.368 31.5863 22.496 31.5223C22.832 31.3783 23.168 31.2183 23.504 31.0423C23.632 30.9783 23.744 30.8983 23.856 30.8343C24.176 30.6423 24.496 30.4663 24.816 30.2583C24.928 30.1943 25.024 30.1143 25.136 30.0343C25.456 29.8103 25.76 29.5863 26.048 29.3463C26.144 29.2663 26.224 29.1863 26.32 29.1223C26.496 28.9783 26.672 28.8343 26.832 28.6903C26.832 28.6743 26.832 28.6743 26.816 28.6583C30 25.7303 32 21.5543 32 16.9143ZM23.904 24.8663C19.568 21.9543 12.464 21.9543 8.096 24.8663C7.392 25.3303 6.816 25.8743 6.336 26.4663C3.904 24.0023 2.4 20.6263 2.4 16.9143C2.4 9.41031 8.496 3.31431 16 3.31431C23.504 3.31431 29.6 9.41031 29.6 16.9143C29.6 20.6263 28.096 24.0023 25.664 26.4663C25.2 25.8743 24.608 25.3303 23.904 24.8663Z" fill="black"/>
<path id="Vector_2" d="M16 8.8018C12.688 8.8018 10 11.4898 10 14.8018C10 18.0498 12.544 20.6898 15.92 20.7858H16.064H16.176H16.208C19.44 20.6738 21.984 18.0498 22 14.8018C22 11.4898 19.312 8.8018 16 8.8018Z" fill="black"/>
</g>
</svg>
